<svg xmlns="http://www.w3.org/2000/svg" width="114" height="22" viewBox="0 0 114 22" fill="none"><path d="M9.38245 10.7657C9.38245 8.78838 7.94331 7.39869 6.17552 7.39869C4.40773 7.39869 2.96858 8.8118 2.96858 10.7657C2.96858 12.6961 4.40773 14.1327 6.17552 14.1327C7.94509 14.1309 9.38245 12.743 9.38245 10.7657ZM9.40772 16.6508V15.1205C8.53556 16.1804 7.23726 16.8383 5.68256 16.8383C2.45215 16.8383 0 14.2481 0 10.7657C0 7.30494 2.54605 4.6697 5.75479 4.6697C7.26439 4.6697 8.53741 5.32941 9.40951 6.36404V4.88059H12.3095V16.6508H9.40772Z" fill="#1D2D35" fill-opacity="0.5"></path><path d="M26.3957 14.0372C25.3809 14.0372 25.0992 13.6604 25.0992 12.6727V7.44729H26.9627V4.88059H25.0992V2.00924H22.127V4.88059H18.2989V4.165C18.2989 3.17544 18.6763 2.79872 19.7146 2.79872H20.3665V0.514977H18.9363C16.4842 0.514977 15.3285 1.31528 15.3285 3.76305V4.87878H13.6781V7.44552H15.3285V16.649H18.3007V7.44552H22.1288V13.2134C22.1288 15.6143 23.0479 16.6508 25.4531 16.6508H26.9861V14.0372H26.3957Z" fill="#1D2D35" fill-opacity="0.5"></path><path d="M37.0549 9.70581C36.8436 8.17546 35.5923 7.25799 34.1314 7.25799C32.6688 7.25799 31.4663 8.15204 31.1611 9.70581H37.0549ZM31.1358 11.5425C31.3489 13.2837 32.5984 14.2733 34.1784 14.2733C35.4279 14.2733 36.3958 13.6838 36.961 12.7429H40.0036C39.2958 15.2376 37.0549 16.8382 34.108 16.8382C30.5471 16.8382 28.048 14.3435 28.048 10.7891C28.048 7.23457 30.6898 4.66785 34.1802 4.66785C37.6941 4.66785 40.2402 7.25806 40.2402 10.7891C40.2402 11.0487 40.2167 11.3064 40.1697 11.5425H31.1358Z" fill="#1D2D35" fill-opacity="0.5"></path><path d="M59.1369 10.7657C59.1369 8.85863 57.6977 7.39869 55.9299 7.39869C54.1622 7.39869 52.7229 8.8118 52.7229 10.7657C52.7229 12.6961 54.1622 14.1327 55.9299 14.1327C57.6977 14.1309 59.1369 12.6727 59.1369 10.7657ZM49.7978 4.88059H52.6977V6.4109C53.5698 5.3276 54.8663 4.6697 56.4229 4.6697C59.6063 4.6697 62.1055 7.28329 62.1055 10.7423C62.1055 14.203 59.5594 16.84 56.3525 16.84C54.8664 16.84 53.6403 16.2506 52.7916 15.2629V21.4941H49.7978V4.88059Z" fill="#1D2D35" fill-opacity="0.5"></path><path d="M72.5587 10.7657C72.5587 8.78838 71.1213 7.39869 69.3516 7.39869C67.5839 7.39869 66.1447 8.8118 66.1447 10.7657C66.1447 12.6961 67.5839 14.1327 69.3516 14.1327C71.1213 14.1309 72.5587 12.743 72.5587 10.7657ZM72.5841 16.6508V15.1205C71.7119 16.1804 70.4133 16.8383 68.8585 16.8383C65.6283 16.8383 63.1762 14.2481 63.1762 10.7657C63.1762 7.30494 65.7223 4.6697 68.9292 4.6697C70.4387 4.6697 71.7119 5.32941 72.5841 6.36404V4.88059H75.4842V16.6508H72.5841Z" fill="#1D2D35" fill-opacity="0.5"></path><path d="M44.5702 6.03418C44.5702 6.03418 45.3088 4.6697 47.1162 4.6697C47.8891 4.6697 48.3893 4.93466 48.3893 4.93466V7.93761C48.3893 7.93761 47.2986 7.26527 46.2964 7.40046C45.2943 7.53565 44.6605 8.4549 44.6641 9.6842V16.6526H41.6702V4.8824H44.5702V6.03418Z" fill="#1D2D35" fill-opacity="0.5"></path><path d="M89.0282 4.88057L81.7061 21.4562H78.6185L81.4932 15.0484L76.6325 4.88057H80.1321L82.9759 11.6741L85.8939 4.88057H89.0282Z" fill="#1D2D35" fill-opacity="0.5"></path><path d="M112.402 4.61381L105.143 0.432057C103.012 -0.79543 100.349 0.738482 100.349 3.19526V3.62425C100.349 4.01179 100.556 4.37048 100.892 4.56334L102.263 5.35283C102.665 5.58535 103.167 5.29515 103.167 4.83192V3.76485C103.167 3.23131 103.745 2.89785 104.208 3.16462L110.495 6.7876C110.958 7.05437 110.958 7.72129 110.495 7.98629L104.208 11.6093C103.745 11.876 103.167 11.5426 103.167 11.009V10.4412C103.167 7.98444 100.504 6.44874 98.3716 7.678L91.1127 11.8598C88.9817 13.0873 88.9817 16.1587 91.1127 17.3862L98.3716 21.568C100.502 22.7954 103.167 21.2615 103.167 18.8048V18.3758C103.167 17.9882 102.96 17.6313 102.624 17.4366L101.253 16.6453C100.851 16.4129 100.349 16.703 100.349 17.1663V18.2334C100.349 18.7669 99.7711 19.1003 99.3083 18.8336L93.0211 15.2106C92.559 14.9438 92.559 14.2769 93.0211 14.0102L99.3083 10.3871C99.7711 10.1204 100.349 10.4538 100.349 10.9874V11.5552C100.349 14.0119 103.012 15.5477 105.143 14.3184L112.402 10.1366C114.533 8.9127 114.533 5.8413 112.402 4.61381Z" fill="#1D2D35" fill-opacity="0.5"></path></svg>