<svg width="569" height="663" viewBox="0 0 569 663" fill="none" xmlns="http://www.w3.org/2000/svg">
<rect x="307" y="433.5" width="34" height="229" fill="#070515"/>
<rect x="341" y="433.5" width="32" height="229" fill="#FF751F"/>
<path d="M567.831 423.726V269.488C580.582 125.138 472 96.9597 436.934 96.9597H164.031C64.3371 89.8411 27.8212 167.158 22.0251 206.706V413.345C21.2523 437.073 38.4475 443.335 47.1418 443.5H544.646C560.875 441.127 566.865 429.329 567.831 423.726Z" fill="#FD6031"/>
<path d="M440.212 97.5H134C275.714 97.5 286.757 226.833 274.565 291.5H547.334C563.219 287.9 567.887 270.667 568.235 262.5C578.268 132.5 487.067 98.3333 440.212 97.5Z" fill="#FF751F"/>
<path d="M326 3.5C326 2.39543 326.895 1.5 328 1.5H408.673C410.053 1.5 411.018 2.8644 410.559 4.16564L399.971 34.1656C399.689 34.9653 398.933 35.5 398.085 35.5H328C326.895 35.5 326 34.6046 326 33.5V3.5Z" fill="#FD6031"/>
<path d="M326 37.5C326 36.3954 326.895 35.5 328 35.5H398.355C399.064 35.5 399.72 35.8758 400.08 36.4876L411.232 55.4876C412.014 56.8209 411.053 58.5 409.507 58.5H328C326.895 58.5 326 57.6046 326 56.5V37.5Z" fill="#D14318"/>
<path d="M324 8.5L324 275.5" stroke="#F5F5F5" stroke-width="17" stroke-linecap="round"/>
<circle cx="323" cy="272.5" r="14" fill="white" stroke="#FD6031" stroke-width="6"/>
<path d="M227.419 433.497H52.5943C25.3438 433.497 14.8577 409.278 13.0209 397.169V221.999C12.1861 185.007 35.8633 110.526 137.251 108.536C238.639 106.545 267.326 187.993 268.996 228.966V397.169C269.396 426.63 241.445 433.663 227.419 433.497Z" stroke="#FF8059" stroke-width="26"/>
</svg>
